# xmcd
#
# Track frame offsets: 
#        183
#        32793
#        78898
#        149613
#
# Disc length: 2448 seconds
#
# Revision: 0
# Processed by: cddbd v1.5.1PL0 Copyright (c) Steve Scherf et al.
# Submitted via: ExactAudioCopy v0.95a3
#
DISCID=2e098e04
DTITLE=Prince - Nude Tour 1990 (Yokohama) [CD1]
DYEAR=1900
DGENRE=
TTITLE0=DAT Intro -- The Future
TTITLE1=1999 -- Housequake -- Sexy Dancer -- Kiss -- I'm In The Mood
TTITLE2=Purple Rain -- Take Me With U -- Alphabet St. -- It Takes Two 
TTITLE2=- Raspberry Beret
TTITLE3=The Question Of U -- Electric Man
EXTD=
EXTT0=
EXTT1=
EXTT2=
EXTT3=
PLAYORDER=
